# xmcd CD database file
#
# Track frame offsets:
#	182
#	18927
#	39155
#	56235
#	74922
#	93152
#	109015
#	119650
#	137245
#	157157
#	180682
#	193557
#
# Disc length: 2881 seconds
#
# Revision: 0
# Processed by: cddbd v1.5.2PL0 Copyright (c) Steve Scherf et al.
# Submitted via: CDex 1.51
#
DISCID=ae0b3f0c
DTITLE=Maynard Silva - Maynard Silva
DYEAR=1991
DGENRE=Blues
TTITLE0=One Room Cabin
TTITLE1=Black Bottom
TTITLE2=Shake'em On Down
TTITLE3=Bring It On Home
TTITLE4=Little Wheel
TTITLE5=After Teh Full Moon
TTITLE6=Jezebel
TTITLE7=Sadie
TTITLE8=Stones In My Passway
TTITLE9=Cruel Hearted Woman
TTITLE10=Hard Luck Alley Cat
TTITLE11=Blue And Lonesome
EXTD=YEAR: 1991
EXTT0=
EXTT1=
EXTT2=
EXTT3=
EXTT4=
EXTT5=
EXTT6=
EXTT7=
EXTT8=
EXTT9=
EXTT10=
EXTT11=
PLAYORDER=
